<?xml version="1.0" encoding="UTF-8"?>
<svg width="91px" height="26px" viewBox="0 0 91 26" version="1.1" xmlns="http://www.w3.org/2000/svg" xmlns:xlink="http://www.w3.org/1999/xlink">
    <title>编组</title>
    <g id="行业解决方案" stroke="none" stroke-width="1" fill="none" fill-rule="evenodd">
        <g id="行业解决方案-零库存卖书" transform="translate(-360.000000, -31.000000)" fill="#000000">
            <g id="编组" transform="translate(360.000000, 31.000000)">
                <path d="M82.8994895,5.32968547e-05 L82.8994895,0.925819661 L78.8803028,0.925819661 L78.8803028,2.49523437 L82.8994895,2.49523437 L82.8994895,5.26702612 L78.8803028,5.26702612 L78.8803028,6.83626318 L87.7401866,6.83626318 L87.7401866,8.47141068 L84.8375286,11.1419384 L81.3826791,7.96349165 L78.8803028,8.64533608 L83.2594614,12.5935671 L78.6748812,16.8113025 L81.7373702,16.8113025 L84.8024996,13.9847926 L87.937511,16.8113025 L91,16.8113025 L86.3633163,12.5455999 L89.9732441,9.21650071 L89.9732441,6.83626318 L89.9732441,5.26702612 L87.7401866,5.26702612 L85.9540574,5.26702612 L85.9540574,2.49523437 L89.9732441,2.49523437 L89.9732441,0.925819661 L85.9540574,0.925819661 L85.9540574,5.32968547e-05 L82.8994895,5.32968547e-05 Z M72.6673297,15.2451389 L71.1026404,15.2451389 L72.2760253,16.8143759 L75.7217215,16.8143759 L75.7217215,16.8111781 L75.7217215,15.2451389 L75.7217215,9.31195537 L77.5421757,8.40573119 L77.5421757,6.83631648 L75.7217215,7.74254066 L75.7217215,2.49511001 L77.7768175,2.49511001 L77.7768175,0.925872958 L75.7217215,0.925872958 L75.7217215,0.000106593709 L72.6673297,0.000106593709 L72.6673297,0.925872958 L71.9987854,0.925872958 C71.1878366,0.925872958 70.530558,1.58924114 70.530558,2.40770317 L70.530558,2.49511001 L72.6673297,2.49511001 L72.6673297,9.26309992 L70.530558,10.3267275 L70.530558,11.8961422 L72.6673297,10.832337 L72.6673297,15.2451389 Z M65.9723992,0 L65.9723992,11.3335761 L67.4703749,11.3335761 L67.4703749,12.9028132 L65.9723992,12.9028132 L65.9723992,16.8112492 L62.9180074,16.8112492 L62.9180074,12.9028132 L56.3186411,12.9028132 L56.3186411,11.3335761 L62.9180074,11.3335761 L62.9180074,0 L65.9723992,0 Z M61.5440943,6.21107331 L61.5440943,7.78031037 L56.3186059,7.78031037 L56.3186059,6.21107331 L61.5440943,6.21107331 Z M61.5440943,1.71050925 L61.5440943,3.27974631 L56.3186059,3.27974631 L56.3186059,1.71050925 L61.5440943,1.71050925 Z M55.1778208,0.318892847 L55.1778208,1.8881299 L52.6530892,1.8881299 L52.6530892,3.42787603 L55.1778208,3.42787603 L55.1778208,4.99711309 L52.6530892,4.99711309 L52.6530892,16.8112492 L49.5986974,16.8112492 L49.5986974,4.99711309 L47.0514346,4.99711309 L47.0514346,3.42787603 L49.5986974,3.42787603 L49.5986974,1.8881299 L47.0514346,1.8881299 C47.0514346,1.02152305 47.7476149,0.318892847 48.6062665,0.318892847 L55.1778208,0.318892847 Z M48.4889984,6.21107331 L48.4889984,16.6336285 L47.0513994,16.6336285 L47.0513994,6.21107331 L48.4889984,6.21107331 Z M55.1779616,6.21107331 L55.1779616,16.6336285 L53.7403626,16.6336285 L53.7403626,6.21107331 L55.1779616,6.21107331 Z M18.9773807,0.570525063 L3.04708678,0.570525063 C2.18825911,0.570525063 1.49225488,1.27315526 1.49225488,2.13976212 L18.9773807,2.13976212 L18.9773807,0.570525063 Z M0,8.07042291 L20.4696356,8.07042291 L20.4696356,6.50118586 L0,6.50118586 L0,8.07042291 Z M14.5503961,11.89449 L15.730646,14.8737842 L5.10804436,15.1349388 L9.04185883,8.07790224 L5.5354339,8.08110005 L1.55426861,15.2227009 L0.646681922,16.8145003 L0.667452913,16.8139673 L0.667100863,16.8145003 L4.22052456,16.7270935 L4.22070058,16.7265605 L16.3465587,16.4284534 L16.4995247,16.8145003 L20.0041894,16.8145003 L18.056821,11.8976878 L14.5503961,11.89449 Z M28.773737,0.0718263944 L28.773737,2.19908152 L31.044288,2.19908152 L31.044288,3.76831857 L28.773737,3.76831857 L28.773737,16.8113025 L25.7193452,16.8113025 L25.7193452,3.76831857 L23.3470516,3.76831857 L23.3470516,3.72639171 C23.3470516,2.88288016 24.0245731,2.19908152 24.8603415,2.19908152 L25.7193452,2.19908152 L25.7193452,0.0718263944 L28.773737,0.0718263944 Z M24.9616265,6.21107331 L24.9616265,16.8112847 L23.5240275,16.8112847 L23.5240275,6.21107331 L24.9616265,6.21107331 Z M31.0441824,6.21107331 L31.0441824,16.0297752 L29.6065833,16.0297752 L29.6065833,6.21107331 L31.0441824,6.21107331 Z M34.1101919,9.54230438 L36.0577363,9.54230438 L36.0577363,7.78048802 L34.1101919,7.78048802 L34.1101919,9.54230438 Z M39.1123042,6.21107331 L41.76395,6.21107331 L41.76395,3.76830081 L39.1123042,3.76830081 L39.1123042,6.21107331 Z M43.9970076,16.8112847 L43.9970076,15.2450678 L43.9970076,9.54212672 L42.9700757,9.54212672 L40.9424397,9.54212672 L39.1123042,9.54212672 L39.1123042,7.78048802 L43.9970076,7.78048802 L43.9970076,7.03664159 L43.9970076,6.21107331 L43.9970076,3.76830081 L43.9970076,3.08734466 L43.9970076,2.19906375 L41.291322,2.19906375 L42.3173737,0.318928378 L39.8348882,0.318928378 L38.8088365,2.19906375 L37.4479845,2.19906375 L36.5046647,0.318928378 L34.0221792,0.318928378 L34.9656751,2.19906375 L31.8771343,2.19906375 L31.8771343,3.76830081 L36.0577363,3.76830081 L36.0577363,6.21107331 L31.8771343,6.21107331 L31.8771343,6.67066985 L31.8771343,7.78048802 L31.8771343,9.54212672 L31.8771343,10.6199668 L31.8771343,11.1115414 L33.437599,11.1115414 L31.1844746,16.8144825 L33.6488294,16.8107518 L35.7942264,11.1115414 L36.0577363,11.1115414 L36.0577363,16.8144825 L39.1123042,16.8144825 L39.1123042,11.1115414 L40.9424397,11.1115414 L40.9424397,15.2450678 L39.3777504,15.2450678 L40.5513114,16.8144825 L43.9970076,16.8144825 L43.9970076,16.8112847 Z M27.3532829,25.9858053 L28.937511,25.9858053 L28.937511,20.4809508 L27.3532829,20.4809508 L27.3532829,25.9858053 Z M25.0936279,20.4786235 L20.7370005,20.4851968 L20.7382327,21.2846496 L22.1244323,21.2825177 L22.1312973,25.9879194 L23.7155254,25.9856098 L23.7086604,21.2802082 L25.0948601,21.2780763 L25.0936279,20.4786235 Z M9.23583876,25.1862992 L7.64439359,25.1862992 L7.64439359,20.4808975 L6.06016546,20.4808975 L6.06016546,25.985752 L6.35359972,25.985752 L7.64439359,25.985752 L9.23583876,25.985752 L9.60531597,25.985752 L10.8200669,25.985752 L10.8200669,20.4808975 L9.23583876,20.4808975 L9.23583876,25.1862992 Z M4.16417884,20.4808265 L3.07880655,22.5798342 L1.99361028,20.4808265 L0.467998592,20.4808265 L1.85032565,23.1543743 L1.85032565,25.9810619 L3.43455378,25.9810619 L3.43455378,23.0842001 L4.78061961,20.4808265 L4.16417884,20.4808265 Z M15.781799,23.2667952 L13.7673649,20.4770601 L13.5061433,20.4772378 L13.2148213,20.4772378 L12.4227073,20.4772378 L12.4227073,25.9820923 L13.2148213,25.9820923 L13.2148213,22.4264814 L15.7814469,25.9810263 L15.781799,25.980671 L15.781799,25.9820923 L16.573913,25.9820923 L16.573913,20.4772378 L15.781799,20.4772378 L15.781799,23.2667952 Z M39.4700933,20.4826741 L35.1134659,20.4892474 L35.1146981,21.2887002 L36.5008977,21.2865683 L36.5077627,25.9919699 L38.0919908,25.9896604 L38.0851259,21.2842588 L39.4713255,21.2821269 L39.4700933,20.4826741 Z M44.1199437,25.1953952 L42.2685091,25.1982377 L42.2663968,23.7009513 L43.9340609,23.6984642 L43.9328287,22.8990113 L42.2651646,22.9014985 L42.2628763,21.2921112 L44.1141348,21.2894463 L44.1130787,20.4899935 L40.6774159,20.4951455 L40.6786481,21.2945984 L40.6786481,21.2945984 L40.6811125,23.0054274 L40.6821686,23.7034385 L40.6855131,26 L42.2697412,25.9976905 L44.1211758,25.994848 L44.1199437,25.1953952 Z M54.8489879,22.8904128 L53.2380039,22.8904128 L53.2380039,20.4815726 L51.6537757,20.4815726 L51.6537757,25.9864271 L53.2380039,25.9864271 L53.2380039,23.6898656 L54.8489879,23.6898656 L54.8489879,25.9864271 L56.433216,25.9864271 L56.433216,20.4815726 L54.8489879,20.4815726 L54.8489879,22.8904128 Z M71.6275304,20.4829228 L70.0433022,20.4829228 L70.0433022,25.9877773 L70.243267,25.9877773 L71.6275304,25.9877773 L73.4949833,25.9877773 L73.4949833,25.1883244 L71.6275304,25.1883244 L71.6275304,20.4829228 Z M61.2225841,23.2725157 L59.20815,20.482603 L58.9469284,20.4829583 L58.6556064,20.4829583 L57.8634923,20.4829583 L57.8634923,25.9878128 L58.6556064,25.9878128 L58.6556064,22.432202 L61.222232,25.9867468 L61.2225841,25.9863915 L61.2225841,25.9878128 L62.0146981,25.9878128 L62.0146981,20.4829583 L61.2225841,20.4829583 L61.2225841,23.2725157 Z M65.9410139,25.4560701 C65.2200141,25.4560701 64.6354339,24.4619061 64.6354339,23.2353678 C64.6354339,22.0088295 65.2200141,21.0146655 65.9410139,21.0146655 C66.6620137,21.0146655 67.2465939,22.0088295 67.2465939,23.2353678 C67.2465939,24.4619061 66.6620137,25.4560701 65.9410139,25.4560701 M65.9410139,20.4827629 C64.434765,20.4827629 63.2136772,21.7151638 63.2136772,23.2353678 C63.2136772,24.7555717 64.434765,25.9879727 65.9410139,25.9879727 C67.4472628,25.9879727 68.6683506,24.7555717 68.6683506,23.2353678 C68.6683506,21.7151638 67.4472628,20.4827629 65.9410139,20.4827629 M77.1125506,25.4547021 C76.3915508,25.4547021 75.8069706,24.4605381 75.8069706,23.2339998 C75.8069706,22.0074616 76.3915508,21.0132976 77.1125506,21.0132976 C77.8335504,21.0132976 78.4181306,22.0074616 78.4181306,23.2339998 C78.4181306,24.4605381 77.8335504,25.4547021 77.1125506,25.4547021 M77.1125506,20.481395 C75.6063017,20.481395 74.3852139,21.7137959 74.3852139,23.2339998 C74.3852139,24.7542038 75.6063017,25.9866047 77.1125506,25.9866047 C78.6187995,25.9866047 79.8398873,24.7542038 79.8398873,23.2339998 C79.8398873,21.7137959 78.6187995,20.481395 77.1125506,20.481395 M84.5476501,24.5818951 L84.5495863,24.5818951 C84.310896,25.1116658 83.936314,25.4547199 83.5136772,25.4547199 C82.7926773,25.4547199 82.2080972,24.4605559 82.2080972,23.2340176 C82.2080972,22.0074793 82.7926773,21.0133153 83.5136772,21.0133153 C83.9183594,21.0133153 84.2799155,21.3267008 84.519486,21.8184531 L85.4661503,21.3142649 C84.970815,20.8011938 84.2797395,20.4814127 83.5136772,20.4814127 C82.0074283,20.4814127 80.7863404,21.7138137 80.7863404,23.2340176 C80.7863404,24.7542216 82.0074283,25.9866225 83.5136772,25.9866225 C84.5344482,25.9866225 85.4226721,25.4197216 85.8901954,24.5818951 L85.8901954,23.4715439 L84.5476501,23.4715439 L84.5476501,24.5818951 Z M90.1582996,20.4987875 L89.0729273,22.5977953 L87.987731,20.4987875 L86.4621193,20.4987875 L87.8444464,23.1723354 L87.8444464,25.986587 L89.4286745,25.986587 L89.4286745,23.1021612 L90.7747404,20.4987875 L90.1582996,20.4987875 Z M48.0647773,25.4547021 C47.3437775,25.4557681 46.7577891,24.4624923 46.7560289,23.2359541 C46.7540926,22.0095934 47.3372646,21.0143635 48.0582644,21.0132976 C48.5351171,21.0125869 48.951593,21.4481999 49.180426,22.0973556 L50.1631755,21.479645 C49.6620313,20.8688631 48.9045943,20.4801514 48.0573843,20.481392 C46.5511354,20.4837045 45.3319838,21.717882 45.3342689,23.2380859 C45.3363844,24.7582899 46.5592325,25.9887366 48.0654814,25.9866075 C49.0580884,25.9850058 49.9232529,25.4468852 50.3992255,24.6463665 L49.2617497,24.1103778 C49.062841,24.9002372 48.6023587,25.4538138 48.0647773,25.4547021" id="形状结合"></path>
            </g>
        </g>
    </g>
</svg>